<svg width="401" height="249" viewBox="0 0 401 249" fill="none" xmlns="http://www.w3.org/2000/svg">
<g clip-path="url(#clip0_4_901)">
<path d="M383.277 169.888C402.703 205.713 374.592 276.004 196.314 227.154C106.928 202.661 40.1594 257.836 26.4013 219.323C-5.64778 129.615 125.234 25.8434 198.015 98.2915C264.54 164.513 347.92 104.684 383.277 169.888Z" stroke="#E4E4E4" stroke-width="4" stroke-miterlimit="10"/>
<path d="M382.253 248.746H18.7484C30.1246 162.127 107.153 95.1272 200.501 95.1272C293.849 95.1272 370.877 162.127 382.253 248.746Z" fill="#F6F5F5"/>
<path d="M334.87 22.1117H198.144C191.779 22.1117 186.619 27.4294 186.619 33.989V236.108C186.619 242.668 191.779 247.985 198.144 247.985H334.87C341.236 247.985 346.395 242.668 346.395 236.108V33.989C346.395 27.4294 341.236 22.1117 334.87 22.1117Z" fill="#A9BAE6"/>
<path d="M332.568 31.2147H201.059V228.085H332.568V31.2147Z" fill="#F6F5F5"/>
<path d="M332.566 31.2162C332.606 107.986 335.011 200.572 326.644 221.071C289.787 224.772 246.634 225.96 201.056 226.18L218.381 31.8092L332.566 31.2162Z" fill="#E4E4E4"/>
<path d="M320.754 214.867C263.309 224.342 224.916 224.841 193.775 222.458C197.81 178.19 199.428 104.647 201.056 31.2242L270.279 31.3825L332.929 35.6447C333.842 111.852 333.942 182.244 320.754 214.867Z" fill="white"/>
<path d="M300.455 51.0658L231.274 49.3789L231.027 60.2384L300.208 61.9254L300.455 51.0658Z" fill="#708CD5"/>
<path d="M313.792 77.6405L251.391 76.1189L251.278 81.0894L313.679 82.611L313.792 77.6405Z" fill="#708CD5"/>
<path d="M293.557 87.9867L251.143 86.9566L251.029 91.927L293.444 92.9571L293.557 87.9867Z" fill="#D3DFFF"/>
<path d="M231.728 75.9333L216.955 75.5746L216.607 90.7989L231.38 91.1577L231.728 75.9333Z" fill="white" stroke="#708CD5" stroke-width="6" stroke-miterlimit="10"/>
<path d="M219.365 79.5725C219.821 81.372 220.663 88.9088 224.326 86.8025C225.171 86.3167 225.886 85.0318 226.517 84.2918C227.653 82.9622 228.789 81.6341 229.924 80.3045L236.74 72.3314C237.321 71.6506 234.752 69.9422 234.021 70.7972C232.002 73.1592 229.983 75.5229 227.964 77.8849C226.955 79.0659 225.945 80.2469 224.936 81.428C224.235 82.2478 222.614 84.8911 221.575 85.126C222.141 85.3146 222.706 85.5016 223.272 85.6902C223.672 86.0274 222.929 83.6334 222.912 83.5679C222.63 82.4556 222.349 81.3449 222.067 80.2326C221.834 79.3136 219.021 78.2093 219.367 79.5709L219.365 79.5725Z" fill="#EE6F57"/>
<path d="M302.143 105.049L250.757 103.796L250.644 108.767L302.03 110.02L302.143 105.049Z" fill="#708CD5"/>
<path d="M312.911 116.149L250.509 114.634L250.396 119.604L312.797 121.12L312.911 116.149Z" fill="#D3DFFF"/>
<path d="M231.095 103.612L216.322 103.254L215.974 118.478L230.747 118.837L231.095 103.612Z" fill="white" stroke="#708CD5" stroke-width="6" stroke-miterlimit="10"/>
<path d="M218.723 107.68C219.179 109.48 220.021 117.017 223.684 114.91C224.529 114.425 225.244 113.14 225.875 112.4C227.011 111.07 228.147 109.742 229.282 108.412L236.098 100.439C236.679 99.7585 234.11 98.0501 233.379 98.9051C231.36 101.267 229.341 103.631 227.322 105.993C226.313 107.174 225.303 108.355 224.294 109.536C223.593 110.356 221.972 112.999 220.933 113.234C221.499 113.423 222.064 113.61 222.63 113.798C223.03 114.135 222.287 111.741 222.27 111.676C221.988 110.563 221.707 109.453 221.425 108.34C221.192 107.422 218.379 106.317 218.725 107.679L218.723 107.68Z" fill="#EE6F57"/>
<path d="M312.524 132.997L250.123 131.475L250.01 136.446L312.411 137.967L312.524 132.997Z" fill="#708CD5"/>
<path d="M277.784 142.991L249.877 142.313L249.763 147.283L277.67 147.961L277.784 142.991Z" fill="#D3DFFF"/>
<path d="M230.461 131.29L215.688 130.931L215.34 146.155L230.113 146.514L230.461 131.29Z" fill="white" stroke="#708CD5" stroke-width="6" stroke-miterlimit="10"/>
<path d="M218.291 135.555C218.747 137.355 219.589 144.891 223.252 142.785C224.097 142.299 224.812 141.014 225.443 140.274C226.578 138.945 227.715 137.617 228.85 136.287C231.122 133.629 233.393 130.972 235.665 128.314C236.247 127.633 233.677 125.925 232.947 126.78C230.928 129.142 228.909 131.505 226.89 133.867C225.88 135.048 224.871 136.229 223.861 137.41C223.16 138.23 221.54 140.874 220.501 141.109C221.067 141.297 221.631 141.484 222.197 141.673C222.597 142.01 221.854 139.616 221.837 139.55C221.555 138.438 221.274 137.327 220.992 136.215C220.76 135.296 217.947 134.192 218.292 135.553L218.291 135.555Z" fill="#EE6F57"/>
<path d="M311.893 160.674L249.492 159.153L249.379 164.123L311.78 165.645L311.893 160.674Z" fill="#708CD5"/>
<path d="M298.538 171.187L249.243 169.99L249.129 174.961L298.424 176.158L298.538 171.187Z" fill="#D3DFFF"/>
<path d="M229.828 158.967L215.056 158.608L214.707 173.833L229.48 174.191L229.828 158.967Z" fill="white" stroke="#708CD5" stroke-width="6" stroke-miterlimit="10"/>
<path d="M217.663 163.053C218.119 164.852 218.961 172.389 222.624 170.282C223.469 169.797 224.184 168.512 224.815 167.772C225.95 166.442 227.087 165.114 228.222 163.784C230.493 161.127 232.765 158.469 235.037 155.811C235.619 155.131 233.049 153.422 232.319 154.277C230.3 156.639 228.281 159.003 226.262 161.365C225.252 162.546 224.242 163.727 223.233 164.908C222.532 165.728 220.912 168.371 219.873 168.606C220.439 168.795 221.003 168.982 221.569 169.17C221.969 169.507 221.226 167.113 221.209 167.048C220.927 165.936 220.646 164.825 220.364 163.713C220.131 162.794 217.318 161.689 217.664 163.051L217.663 163.053Z" fill="#EE6F57"/>
<path d="M273.599 187.224L248.863 186.621L248.75 191.592L273.485 192.195L273.599 187.224Z" fill="#708CD5"/>
<path d="M311.023 198.966L248.622 197.452L248.508 202.422C272.65 203.006 303.39 204.172 309.663 203.18C310.615 202.064 311.129 200.695 311.023 198.966Z" fill="#D3DFFF"/>
<path d="M229.407 186.442L214.634 186.083L214.286 201.307L229.059 201.666L229.407 186.442Z" fill="white" stroke="#708CD5" stroke-width="6" stroke-miterlimit="10"/>
<path d="M217.041 190.309C217.497 192.108 218.339 199.645 222.002 197.539C222.847 197.053 223.562 195.768 224.193 195.028C225.328 193.698 226.465 192.37 227.6 191.041C229.872 188.383 232.144 185.725 234.415 183.068C234.997 182.387 232.427 180.678 231.695 181.533C229.676 183.895 227.657 186.259 225.638 188.621C224.629 189.802 223.619 190.983 222.61 192.164C221.909 192.984 220.288 195.627 219.249 195.862C219.815 196.051 220.38 196.238 220.946 196.426C221.346 196.763 220.603 194.369 220.586 194.304C220.304 193.192 220.023 192.081 219.741 190.969C219.508 190.05 216.695 188.945 217.041 190.307V190.309Z" fill="#EE6F57"/>
<path d="M296.125 23.4797V38.6748H236.887V23.4797C236.887 21.057 237.842 18.8643 239.381 17.2726C239.573 17.0744 239.772 16.8891 239.982 16.7165C241.453 15.4571 243.344 14.7028 245.404 14.7028C246.948 14.7028 248.431 14.3384 249.758 13.68C250.335 13.3923 250.881 13.0535 251.396 12.6636C253.089 11.3723 254.386 9.53765 255.031 7.3514C255.688 5.12041 257.034 3.2538 258.777 1.95611C260.452 0.715963 262.493 0 264.658 0H268.355C270.52 0 272.56 0.715963 274.235 1.95611C275.978 3.2538 277.324 5.12041 277.982 7.3514C278.627 9.53765 279.923 11.3723 281.617 12.6636C282.131 13.0535 282.677 13.3923 283.254 13.68C284.582 14.3384 286.064 14.7028 287.609 14.7028C289.668 14.7028 291.56 15.4571 293.03 16.7165C294.922 18.321 296.125 20.7565 296.125 23.4797Z" fill="#EE6F57"/>
<path d="M300.933 31.2147V42.5103H232.08V31.2147H236.887V38.6748H296.125V31.2147H300.933Z" fill="#E4E4E4"/>
<path d="M266.506 14.2537C269.408 14.2537 271.76 11.9498 271.76 9.10775C271.76 6.2657 269.408 3.96177 266.506 3.96177C263.605 3.96177 261.252 6.2657 261.252 9.10775C261.252 11.9498 263.605 14.2537 266.506 14.2537Z" fill="white"/>
<path d="M152.98 80.247C150.879 79.8378 148.916 76.2197 148.233 74.8325C148.066 74.4921 148.013 74.1069 148.083 73.7314L148.919 69.1639C148.919 69.1639 150.848 69.5027 150.699 72.1492C150.683 72.4241 150.738 72.699 150.834 72.9547L151.572 74.946L153.755 73.204L152.558 69.7201C152.558 69.7201 150.956 70.1739 150.128 69.9023C148.429 69.3429 150.657 67.9781 151.361 67.8327C152.065 67.6873 153.616 67.1071 154.32 68.3409C155.024 69.5746 155.447 70.3002 155.447 70.3002C155.447 70.3002 156.223 67.5418 155.694 61.3714C155.671 61.0934 156.345 61.0998 156.534 61.2979C157.102 61.8924 158.006 63.7047 158.054 69.2119C158.054 69.2119 158.149 62.7938 159.217 62.1337C160.098 61.5888 160.543 64.7307 159.923 70.0573C159.923 70.0573 161.072 65.4451 161.895 65.4371C163.283 65.4227 161.914 77.7555 158.425 81.4312L152.985 80.247H152.98Z" fill="#F9B384"/>
<path d="M159.568 78.3596C159.506 78.9733 159.437 79.5678 159.363 80.1431V80.1495C159.115 82.1951 158.805 84.0233 158.445 85.5895C158.426 85.6662 158.414 85.7365 158.395 85.8069C157.334 90.288 157.142 92.4807 153.52 91.8925L149.792 87.5201L149.754 87.4753L149.482 87.1557L150.238 84.8544L150.338 84.5539L150.896 82.8791L150.964 82.6617L151.919 79.7787L152.304 78.6089L159.568 78.3596Z" fill="#F9B384"/>
<path d="M90.3086 237.575L89.3596 240.631C82.8527 242.833 79.058 245.358 78.8146 248.302H97.6296L99.1385 238.069C95.3283 239.028 92.2734 238.36 90.3086 237.575Z" fill="#1F3C88"/>
<path d="M92.6688 229.977L90.3102 237.575C92.2749 238.36 95.3299 239.028 99.1401 238.069L100.112 231.469L92.6688 229.977Z" fill="#F9B384"/>
<path d="M124.837 237.236L125.389 229.498L116.55 229.977L116.068 237.112C119.81 238.341 122.904 237.859 124.837 237.236Z" fill="#F9B384"/>
<path d="M135.469 248.303C135.226 245.359 131.902 241.324 124.614 240.365L124.837 237.236C122.902 237.859 119.81 238.341 116.068 237.112L115.31 248.303H135.469Z" fill="#1F3C88"/>
<path d="M117.673 82.2334L107.01 82.3101V65.6896H117.35L117.357 66.706L117.406 71.9734L117.481 80.4307L117.673 82.2334Z" fill="#F9B384"/>
<path d="M117.406 72.7725C115.489 74.8501 110.49 72.504 108.381 70.2155L117.357 67.5051L117.406 72.7725Z" fill="#E28B6D"/>
<path d="M119.881 61.8541C119.875 63.0814 119.8 64.3663 119.602 65.5937C119.081 68.9434 117.704 71.8392 114.528 71.9287C107.022 72.1524 104.882 67.7288 103.468 64.1106C102.054 60.4861 104.349 51.7731 104.349 51.7731L114.063 50.7822L119.397 55.289C119.397 55.289 119.912 58.351 119.881 61.8541Z" fill="#F9B384"/>
<path d="M103.771 62.0379C103.771 62.0379 105.912 61.9356 106.278 56.2398C110.107 57.5599 112.904 56.3565 115.122 53.7292C117.014 56.3038 122.308 57.1108 124.098 51.8386C125.389 48.0302 121.823 42.3569 116.628 45.7929C111.537 43.1416 103.814 43.3237 101.592 49.8265C101.592 49.8265 93.866 53.4974 102.046 61.5792C102.211 61.7406 103.771 62.0395 103.771 62.0395V62.0379Z" fill="#102048"/>
<path d="M133.298 141.968L127.405 233.813H113.551L117.015 144.69L119.134 143.678L133.298 141.968Z" fill="#102048"/>
<path d="M97.2171 129.402L87.4987 233.813H102.594L116.963 147.087L133.298 141.973L134.021 123.435L97.6312 122.583L97.2171 129.402Z" fill="#1F3C88"/>
<path opacity="0.6" d="M99.3835 129.629C107.627 132.678 126.971 129.193 130.988 124.945L128.134 119.062L96.3193 123.419L99.3851 129.628L99.3835 129.629Z" fill="#102048"/>
<path d="M130.246 123.529C129.98 123.644 129.707 123.766 129.427 123.874C126.345 125.166 122.834 126.297 119.093 127.045C116.86 127.499 114.534 127.806 112.165 127.921C108.592 128.106 104.92 127.863 101.285 127.013L105.906 82.6106L106.47 77.1961C106.47 77.1961 112.518 84.8672 119.186 76.3971L130.246 123.529Z" fill="white"/>
<path opacity="0.3" d="M112.165 127.921C108.592 128.106 104.92 127.863 101.285 127.013L105.906 82.6106L107.556 80.1527C111.631 90.3679 115.806 112.988 112.165 127.921Z" fill="#1F3C88"/>
<path d="M107.013 75.4382C111.608 95.5427 113.498 116.23 106.729 139.204C101.71 141.171 96.2433 141.149 90.3955 139.416L91.8423 97.6522L57.7773 121.784L55.7102 108.627C68.8046 95.7233 91.4453 76.2293 107.013 75.4382Z" fill="#708CD5"/>
<path opacity="0.3" d="M129.427 123.874C126.345 125.166 122.834 126.297 119.093 127.045C117.04 114.912 116.587 94.9801 118.256 85.9858L129.427 123.874Z" fill="#1F3C88"/>
<path opacity="0.6" d="M158.445 85.5895C158.426 85.6662 158.414 85.7365 158.395 85.8069C157.335 90.288 157.142 92.4807 153.52 91.8926L149.792 87.5201L149.755 87.4753L150.238 84.8544L150.338 84.5539L150.896 82.8791L150.964 82.6617L158.445 85.5895Z" fill="#E28B6D"/>
<path d="M157.8 89.6616C157.8 89.6616 148.65 109.638 143.223 110.118C137.961 110.583 135.469 105.323 135.469 105.323L139.191 134.518C134.818 136.627 130.048 137.657 124.509 136.647C119.59 120.186 117.73 98.902 117.364 75.1985C121.347 75.4542 129.234 75.8042 132.058 77.6756C137.124 81.0316 143.378 93.0176 143.378 93.0176L150.666 82.7896L157.8 89.6616Z" fill="#708CD5"/>
<path d="M46.2615 61.5137C46.2615 61.5137 46.8151 51.9569 47.7595 52.4075C48.7039 52.8582 50.5958 61.1685 50.5958 61.1685L48.5721 64.5341L46.2615 61.5137Z" fill="#6F3428"/>
<path d="M74.1065 234.08L74.381 237.225C74.8648 242.777 70.8903 247.683 65.5015 248.182L64.7168 248.254C59.3296 248.752 54.5688 244.656 54.085 239.103L53.8105 235.958L74.105 234.078L74.1065 234.08Z" fill="#EE6F57"/>
<path d="M60.8243 81.789L40.5293 83.6667L53.7963 235.963L74.0913 234.086L60.8243 81.789Z" fill="#FBC343"/>
<path opacity="0.3" d="M54.0119 79.3392L46.8036 80.0061L58.4326 213.5L65.6409 212.833L54.0119 79.3392Z" stroke="#6F3428" stroke-width="8" stroke-miterlimit="10"/>
<path d="M74.1034 234.081L53.8136 235.961L53.2802 229.824L52.908 225.56L51.7604 212.456L72.0565 210.576L73.1978 223.681L73.57 227.945L74.1034 234.081Z" fill="#102048"/>
<path d="M73.212 223.674L52.9219 225.555L53.2941 229.819L73.5842 227.939L73.212 223.674Z" fill="#FBC343"/>
<path d="M40.5316 83.6638L46.1685 60.3806C46.1685 60.3806 48.1147 61.2708 50.4749 59.7685L60.8276 81.786L40.5316 83.6654V83.6638Z" fill="#EE6F57"/>
<path d="M104.893 61.0742C104.802 60.7306 103.288 60.2591 102.955 60.1633C102.438 60.0162 101.876 59.9443 101.373 60.1792C99.5417 61.0326 99.7867 63.7351 100.736 65.1558C101.274 65.9613 102.06 66.5797 102.975 66.8498C103.307 66.9473 106.458 66.9873 106.32 66.4647C106.32 66.4631 104.896 61.087 104.893 61.0742Z" fill="#F9B384"/>
<path d="M47.2323 115.391C46.7562 113.851 45.19 112.988 43.7075 113.515C41.3984 114.337 39.3871 115.73 39.077 118.102C38.7932 120.261 39.8415 127.159 44.5216 128.044L44.1401 124.501C44.1401 124.501 47.0059 123.812 47.5781 122.532C47.9797 121.635 48.0061 117.894 47.2323 115.393V115.391Z" fill="#F9B384"/>
<path d="M134.038 91.672C134.284 93.1806 134.494 94.6957 134.694 96.2091C134.902 97.7225 135.067 99.2423 135.255 100.759L135.736 105.318C135.875 106.84 136.013 108.363 136.103 109.891L135.863 109.919C135.609 108.411 135.402 106.897 135.198 105.382L134.644 100.832C134.488 99.3127 134.309 97.7944 134.173 96.273C134.028 94.7516 133.894 93.2286 133.796 91.7008L134.036 91.672H134.038Z" fill="#1F3C88"/>
<path d="M92.3246 91.4259C92.3215 93.1215 92.2812 94.8139 92.2331 96.5063C92.1912 98.1988 92.1075 99.8912 92.0454 101.582L91.7772 106.654C91.6671 108.344 91.5539 110.035 91.3957 111.721L91.1538 111.709C91.1491 110.014 91.191 108.321 91.2375 106.627L91.4344 101.552C91.529 99.8608 91.5988 98.17 91.712 96.4792C91.819 94.79 91.9338 93.0991 92.0858 91.4115L92.3277 91.4227L92.3246 91.4259Z" fill="#1F3C88"/>
<path d="M112.421 60.916C112.552 61.5185 112.31 62.0874 111.882 62.1865C111.454 62.2856 111 61.8765 110.87 61.274C110.738 60.6715 110.98 60.1025 111.408 60.0034C111.836 59.9044 112.29 60.3135 112.421 60.916Z" fill="#102048"/>
<path d="M118.603 60.1712C118.579 60.7881 118.202 61.2739 117.763 61.2548C117.324 61.2356 116.989 60.7194 117.015 60.1025C117.04 59.4856 117.417 58.9998 117.856 59.019C118.295 59.0382 118.63 59.5544 118.603 60.1712Z" fill="#102048"/>
<path d="M115.156 60.6763C115.369 61.2052 115.334 61.7742 115.472 62.2073C115.542 62.4262 115.638 62.6196 115.773 62.7378C115.897 62.8545 116.099 62.9312 116.355 63.0335C116.618 63.139 116.899 63.3259 117.09 63.604C117.293 63.8741 117.349 64.344 117.164 64.6508C117 64.9576 116.763 65.127 116.558 65.2821C116.345 65.4291 116.141 65.5873 115.919 65.7247L115.759 65.5362C115.922 65.3284 116.1 65.1414 116.273 64.9449C116.449 64.7579 116.611 64.5757 116.673 64.4063C116.804 64.1106 116.522 63.7878 116.116 63.62C115.907 63.5209 115.604 63.4346 115.359 63.1773C115.123 62.9296 115.007 62.6212 114.961 62.3319C114.858 61.739 114.975 61.2324 114.92 60.7402L115.155 60.6747L115.156 60.6763Z" fill="#E28B6D"/>
<path d="M109.462 59.2971C109.553 58.9183 109.778 58.5587 110.094 58.2998C110.406 58.0329 110.814 57.8875 111.219 57.8667C112.033 57.8156 112.839 58.2934 113.174 58.9998L112.985 59.1548C112.447 58.7185 111.853 58.4804 111.25 58.5028C110.643 58.5188 110.093 58.84 109.682 59.4041L109.462 59.2987V59.2971Z" fill="#102048"/>
<path d="M115.863 58.514C115.955 58.2183 116.116 57.937 116.35 57.7069C116.58 57.4704 116.899 57.3138 117.231 57.2578C117.898 57.1444 118.613 57.4944 118.876 58.1033L118.682 58.2535C118.247 57.9514 117.771 57.8236 117.322 57.8875C117.098 57.9179 116.885 58.0058 116.674 58.132C116.468 58.2647 116.279 58.4469 116.073 58.6418L115.863 58.5156V58.514Z" fill="#102048"/>
<path d="M112.433 66.8674C113.515 68.6142 114.959 68.8043 116.074 66.9649L112.433 66.8674Z" fill="white"/>
<path opacity="0.4" d="M119.909 61.4274C119.903 62.6547 119.799 64.3663 119.6 65.5937C118.85 65.3444 118.304 64.622 118.304 63.759C118.304 62.7938 119.022 61.5744 119.909 61.4274Z" fill="#FC8879"/>
<path opacity="0.4" d="M109.789 66.9633C110.894 66.9633 111.789 66.0403 111.789 64.9017C111.789 63.7631 110.894 62.8401 109.789 62.8401C108.684 62.8401 107.789 63.7631 107.789 64.9017C107.789 66.0403 108.684 66.9633 109.789 66.9633Z" fill="#FC8879"/>
<path d="M103.583 63.1278C103.187 62.8513 102.825 62.5477 102.465 62.3687C102.286 62.2776 102.119 62.2232 101.972 62.236C101.821 62.2472 101.649 62.3383 101.455 62.4805L101.252 62.3447C101.336 62.089 101.514 61.8029 101.841 61.6911C102.166 61.5744 102.496 61.6687 102.739 61.7981C103.234 62.0762 103.572 62.4853 103.777 62.976L103.584 63.1278H103.583Z" fill="#E28B6D"/>
<path opacity="0.6" d="M47.5781 122.53L44.6984 131.545L44.1045 124.501C45.894 124.1 46.871 123.361 47.5781 122.53Z" fill="#6F3428"/>
<path d="M0 248.361H401" stroke="#102048" stroke-width="8" stroke-miterlimit="10"/>
</g>
<defs>
<clipPath id="clip0_4_901">
<rect width="401" height="249" fill="white"/>
</clipPath>
</defs>
</svg>
